<svg xmlns="http://www.w3.org/2000/svg" viewBox="0 0 40 40"><defs><style>.cls-1{fill:#4cb062;}.cls-2{fill:#fff;}</style></defs><title>picto-compris</title><g id="Calque_2" data-name="Calque 2"><g id="Calque_1-2" data-name="Calque 1"><circle class="cls-1" cx="20" cy="20" r="20"/><rect class="cls-2" x="7.8" y="15.07" width="4.42" height="13.09" rx="1.57" ry="1.57"/><path class="cls-2" d="M33,19.8c-.41-1.12-1.69-1.11-2.42-1.11h-.1a.17.17,0,0,1-.12-.29h0a1.71,1.71,0,0,0,1.2-2.2,1.85,1.85,0,0,0-1.7-1.11H24.31a1.57,1.57,0,0,1-1.54-1.86l.7-3.7a2.61,2.61,0,0,0-.35-1.87,2.78,2.78,0,0,0-1.63-1.19,1.19,1.19,0,0,0-.32,0h-.54a1.22,1.22,0,0,0-1.16.87l-.9,3.12A7.2,7.2,0,0,1,15,14.78a1.2,1.2,0,0,0-.65,1.07v11.5A1.21,1.21,0,0,0,15,28.46a16.73,16.73,0,0,0,5.72,1c1.69,0,8,.1,8,.1a1.22,1.22,0,0,0,.88-.38,2,2,0,0,0,.47-2.2c-.25-.53-.62-.54-.86-.72A.17.17,0,0,1,29.4,26a4.72,4.72,0,0,0,1.34,0,1.79,1.79,0,0,0,.91-2.35c-.14-.5-.86-.75-1.28-.92-.15-.06-.05-.31.11-.31h1.21a1.22,1.22,0,0,0,.88-.38A2.08,2.08,0,0,0,33,19.8Z"/></g></g></svg>